<svg width="886" height="517" viewBox="0 0 886 517" fill="none" xmlns="http://www.w3.org/2000/svg">
<g id="Component 1">
<path id="Vector 1" d="M885.5 3H746.312M746.312 3V120.084H628.112M746.312 3H628.112V120.084M628.112 120.084H464.068C355.369 120.084 340.898 120.084 298 120.084V224.542V329H119.5M3 447.5V329H119.5M3 447.5H119.5V388.25V329M3 447.5V517" stroke="#112D4E" stroke-width="5"/>
<rect id="Rectangle 18" x="16.5" y="344.5" width="87" height="88" stroke="#3F72AF" stroke-width="5"/>
<g id="Chess">
<path id="Vector" d="M674 95.8373V94.8373H673V95.8373H674ZM676.009 95.8373V96.8373H677.009V95.8373H676.009ZM676.009 90.2383V89.2383H675.009V90.2383H676.009ZM678.06 90.2383V91.2383H679.06V90.2383H678.06ZM678.06 88.3578V87.3578H677.06V88.3578H678.06ZM679.77 88.3578V89.3578H680.673L680.765 88.4597L679.77 88.3578ZM682.121 65.4065L683.115 65.5084L683.228 64.4065H682.121V65.4065ZM678.06 65.4065H677.06V66.4065H678.06V65.4065ZM678.06 61.9873V60.9873H677.06V61.9873H678.06ZM679.77 61.9873V62.9873H680.77V61.9873H679.77ZM679.77 60.064V59.064H678.77V60.064H679.77ZM682.121 60.064V61.064H683.121V60.064H682.121ZM682.121 55.7473H683.121V55.5932L683.074 55.4463L682.121 55.7473ZM678.06 42.8826V41.8826H676.696L677.107 43.1836L678.06 42.8826ZM686.395 42.8826V43.8826H687.395V42.8826H686.395ZM686.395 34.0521H687.395V33.0521H686.395V34.0521ZM681.993 34.0521H680.993V35.0521H681.993V34.0521ZM681.993 30.8466V29.8466H680.993V30.8466H681.993ZM686.395 30.8466V31.8466H687.395V30.8466H686.395ZM686.395 27V26H685.395V27H686.395ZM702.395 95.8373H703.395V94.8373H702.395V95.8373ZM700.386 95.8373H699.386V96.8373H700.386V95.8373ZM700.386 90.2383H701.386V89.2383H700.386V90.2383ZM698.335 90.2383H697.335V91.2383H698.335V90.2383ZM698.335 88.3578H699.335V87.3578H698.335V88.3578ZM696.625 88.3578L695.63 88.4597L695.722 89.3578H696.625V88.3578ZM694.274 65.4065V64.4065H693.167L693.28 65.5084L694.274 65.4065ZM698.335 65.4065V66.4065H699.335V65.4065H698.335ZM698.335 61.9873H699.335V60.9873H698.335V61.9873ZM696.625 61.9873H695.625V62.9873H696.625V61.9873ZM696.625 60.064H697.625V59.064H696.625V60.064ZM694.274 60.064H693.274V61.064H694.274V60.064ZM694.274 55.7473L693.321 55.4463L693.274 55.5932V55.7473H694.274ZM698.335 42.8826L699.288 43.1836L699.699 41.8826H698.335V42.8826ZM690 42.8826H689V43.8826H690V42.8826ZM690 34.0521V33.0521H689V34.0521H690ZM694.402 34.0521V35.0521H695.402V34.0521H694.402ZM694.402 30.8466H695.402V29.8466H694.402V30.8466ZM690 30.8466H689V31.8466H690V30.8466ZM674 96.8373H676.009V94.8373H674V96.8373ZM677.009 95.8373V90.2383H675.009V95.8373H677.009ZM676.009 91.2383H678.06V89.2383H676.009V91.2383ZM679.06 90.2383V88.3578H677.06V90.2383H679.06ZM678.06 89.3578H679.77V87.3578H678.06V89.3578ZM680.765 88.4597L683.115 65.5084L681.126 65.3046L678.775 88.2559L680.765 88.4597ZM682.121 64.4065H678.06V66.4065H682.121V64.4065ZM679.06 65.4065V61.9873H677.06V65.4065H679.06ZM678.06 62.9873H679.77V60.9873H678.06V62.9873ZM680.77 61.9873V60.064H678.77V61.9873H680.77ZM679.77 61.064H682.121V59.064H679.77V61.064ZM683.121 60.064V55.7473H681.121V60.064H683.121ZM683.074 55.4463L679.014 42.5816L677.107 43.1836L681.167 56.0483L683.074 55.4463ZM678.06 43.8826H686.395V41.8826H678.06V43.8826ZM687.395 42.8826V39.4207H685.395V42.8826H687.395ZM686.395 33.0521H681.993V35.0521H686.395V33.0521ZM682.993 34.0521V30.8466H680.993V34.0521H682.993ZM681.993 31.8466H686.395V29.8466H681.993V31.8466ZM687.395 30.8466V27H685.395V30.8466H687.395ZM687.395 39.3946V34.0521H685.395V39.3946H687.395ZM686.395 28H691V26H686.395V28ZM675 99V98H673V99H675ZM675 98V95.8373H673V98H675ZM674 99H702.499V97H674V99ZM703.395 99V95.8373H701.395V99H703.395ZM702.395 94.8373H700.386V96.8373H702.395V94.8373ZM701.386 95.8373V90.2383H699.386V95.8373H701.386ZM700.386 89.2383H698.335V91.2383H700.386V89.2383ZM699.335 90.2383V88.3578H697.335V90.2383H699.335ZM698.335 87.3578H696.625V89.3578H698.335V87.3578ZM697.62 88.2559L695.269 65.3046L693.28 65.5084L695.63 88.4597L697.62 88.2559ZM694.274 66.4065H698.335V64.4065H694.274V66.4065ZM699.335 65.4065V61.9873H697.335V65.4065H699.335ZM698.335 60.9873H696.625V62.9873H698.335V60.9873ZM697.625 61.9873V60.064H695.625V61.9873H697.625ZM696.625 59.064H694.274V61.064H696.625V59.064ZM695.274 60.064V55.7473H693.274V60.064H695.274ZM695.228 56.0483L699.288 43.1836L697.381 42.5816L693.321 55.4463L695.228 56.0483ZM698.335 41.8826H690V43.8826H698.335V41.8826ZM691 42.8826V39.4207H689V42.8826H691ZM690 35.0521H694.402V33.0521H690V35.0521ZM695.402 34.0521V30.8466H693.402V34.0521H695.402ZM694.402 29.8466H690V31.8466H694.402V29.8466ZM691 30.8466V27H689V30.8466H691ZM691 39.3946V34.0521H689V39.3946H691Z" fill="#112D4E"/>
</g>
<rect id="Rectangle 15" x="645.5" y="18.5" width="84" height="88" stroke="#3F72AF" stroke-width="5"/>
<rect id="Rectangle 20" x="32" y="410" width="8" height="14" fill="#C4C4C4"/>
<rect id="Rectangle 21" x="48" y="400" width="8" height="24" fill="#C4C4C4"/>
<rect id="Rectangle 22" x="64" y="385" width="8" height="39" fill="#C4C4C4"/>
<rect id="Rectangle 23" x="80" y="360" width="8" height="64" fill="#C4C4C4"/>
<path id="Arrow 1" d="M35.1385 411.068C34.6235 411.267 34.368 411.847 34.5676 412.362C34.7673 412.876 35.3466 413.132 35.8615 412.932L35.1385 411.068ZM84.94 360.159C84.7515 359.64 84.1779 359.372 83.6587 359.56L75.199 362.631C74.6799 362.82 74.4118 363.393 74.6003 363.913C74.7888 364.432 75.3624 364.7 75.8815 364.511L83.4013 361.781L86.1313 369.301C86.3198 369.82 86.8934 370.088 87.4125 369.9C87.9317 369.711 88.1997 369.138 88.0113 368.618L84.94 360.159ZM35.8615 412.932C48.2083 408.145 56.9358 402.776 64.3594 394.735C71.7604 386.719 77.8132 376.101 84.906 360.923L83.094 360.077C76.0193 375.216 70.0721 385.599 62.89 393.378C55.7304 401.133 47.2917 406.355 35.1385 411.068L35.8615 412.932Z" fill="black"/>
</g>
</svg>
