<svg width="898" height="971" viewBox="0 0 898 971" fill="none" xmlns="http://www.w3.org/2000/svg">
<g id="Component 1">
<path id="Vector 10" d="M15 522L15 968" stroke="#112D4E" stroke-width="5" stroke-dasharray="10 10"/>
<circle id="Ellipse 6" cx="15" cy="653" r="15" fill="#3F72AF"/>
<circle id="Ellipse 7" cx="15" cy="754" r="15" fill="#3F72AF"/>
<circle id="Ellipse 8" cx="15" cy="855" r="15" fill="#3F72AF"/>
<rect id="Rectangle 18" y="941" width="30" height="30" fill="#3F72AF"/>
<path id="Vector 1" d="M897.5 3H758.312M758.312 3V120.084H640.112M758.312 3H640.112V120.084M640.112 120.084H476.068C367.369 120.084 352.898 120.084 310 120.084V224.542V329H131.5M15 447.5V329H131.5M15 447.5H131.5V388.25V329M15 447.5V517" stroke="#112D4E" stroke-width="5"/>
<rect id="Rectangle 18_2" x="28.5" y="344.5" width="87" height="88" stroke="#3F72AF" stroke-width="5"/>
<g id="Chess">
<path id="Vector" d="M686 95.8373V94.8373H685V95.8373H686ZM688.009 95.8373V96.8373H689.009V95.8373H688.009ZM688.009 90.2383V89.2383H687.009V90.2383H688.009ZM690.06 90.2383V91.2383H691.06V90.2383H690.06ZM690.06 88.3578V87.3578H689.06V88.3578H690.06ZM691.77 88.3578V89.3578H692.673L692.765 88.4597L691.77 88.3578ZM694.121 65.4065L695.115 65.5084L695.228 64.4065H694.121V65.4065ZM690.06 65.4065H689.06V66.4065H690.06V65.4065ZM690.06 61.9873V60.9873H689.06V61.9873H690.06ZM691.77 61.9873V62.9873H692.77V61.9873H691.77ZM691.77 60.064V59.064H690.77V60.064H691.77ZM694.121 60.064V61.064H695.121V60.064H694.121ZM694.121 55.7473H695.121V55.5932L695.074 55.4463L694.121 55.7473ZM690.06 42.8826V41.8826H688.696L689.107 43.1836L690.06 42.8826ZM698.395 42.8826V43.8826H699.395V42.8826H698.395ZM698.395 34.0521H699.395V33.0521H698.395V34.0521ZM693.993 34.0521H692.993V35.0521H693.993V34.0521ZM693.993 30.8466V29.8466H692.993V30.8466H693.993ZM698.395 30.8466V31.8466H699.395V30.8466H698.395ZM698.395 27V26H697.395V27H698.395ZM714.395 95.8373H715.395V94.8373H714.395V95.8373ZM712.386 95.8373H711.386V96.8373H712.386V95.8373ZM712.386 90.2383H713.386V89.2383H712.386V90.2383ZM710.335 90.2383H709.335V91.2383H710.335V90.2383ZM710.335 88.3578H711.335V87.3578H710.335V88.3578ZM708.625 88.3578L707.63 88.4597L707.722 89.3578H708.625V88.3578ZM706.274 65.4065V64.4065H705.167L705.28 65.5084L706.274 65.4065ZM710.335 65.4065V66.4065H711.335V65.4065H710.335ZM710.335 61.9873H711.335V60.9873H710.335V61.9873ZM708.625 61.9873H707.625V62.9873H708.625V61.9873ZM708.625 60.064H709.625V59.064H708.625V60.064ZM706.274 60.064H705.274V61.064H706.274V60.064ZM706.274 55.7473L705.321 55.4463L705.274 55.5932V55.7473H706.274ZM710.335 42.8826L711.288 43.1836L711.699 41.8826H710.335V42.8826ZM702 42.8826H701V43.8826H702V42.8826ZM702 34.0521V33.0521H701V34.0521H702ZM706.402 34.0521V35.0521H707.402V34.0521H706.402ZM706.402 30.8466H707.402V29.8466H706.402V30.8466ZM702 30.8466H701V31.8466H702V30.8466ZM686 96.8373H688.009V94.8373H686V96.8373ZM689.009 95.8373V90.2383H687.009V95.8373H689.009ZM688.009 91.2383H690.06V89.2383H688.009V91.2383ZM691.06 90.2383V88.3578H689.06V90.2383H691.06ZM690.06 89.3578H691.77V87.3578H690.06V89.3578ZM692.765 88.4597L695.115 65.5084L693.126 65.3046L690.775 88.2559L692.765 88.4597ZM694.121 64.4065H690.06V66.4065H694.121V64.4065ZM691.06 65.4065V61.9873H689.06V65.4065H691.06ZM690.06 62.9873H691.77V60.9873H690.06V62.9873ZM692.77 61.9873V60.064H690.77V61.9873H692.77ZM691.77 61.064H694.121V59.064H691.77V61.064ZM695.121 60.064V55.7473H693.121V60.064H695.121ZM695.074 55.4463L691.014 42.5816L689.107 43.1836L693.167 56.0483L695.074 55.4463ZM690.06 43.8826H698.395V41.8826H690.06V43.8826ZM699.395 42.8826V39.4207H697.395V42.8826H699.395ZM698.395 33.0521H693.993V35.0521H698.395V33.0521ZM694.993 34.0521V30.8466H692.993V34.0521H694.993ZM693.993 31.8466H698.395V29.8466H693.993V31.8466ZM699.395 30.8466V27H697.395V30.8466H699.395ZM699.395 39.3946V34.0521H697.395V39.3946H699.395ZM698.395 28H703V26H698.395V28ZM687 99V98H685V99H687ZM687 98V95.8373H685V98H687ZM686 99H714.499V97H686V99ZM715.395 99V95.8373H713.395V99H715.395ZM714.395 94.8373H712.386V96.8373H714.395V94.8373ZM713.386 95.8373V90.2383H711.386V95.8373H713.386ZM712.386 89.2383H710.335V91.2383H712.386V89.2383ZM711.335 90.2383V88.3578H709.335V90.2383H711.335ZM710.335 87.3578H708.625V89.3578H710.335V87.3578ZM709.62 88.2559L707.269 65.3046L705.28 65.5084L707.63 88.4597L709.62 88.2559ZM706.274 66.4065H710.335V64.4065H706.274V66.4065ZM711.335 65.4065V61.9873H709.335V65.4065H711.335ZM710.335 60.9873H708.625V62.9873H710.335V60.9873ZM709.625 61.9873V60.064H707.625V61.9873H709.625ZM708.625 59.064H706.274V61.064H708.625V59.064ZM707.274 60.064V55.7473H705.274V60.064H707.274ZM707.228 56.0483L711.288 43.1836L709.381 42.5816L705.321 55.4463L707.228 56.0483ZM710.335 41.8826H702V43.8826H710.335V41.8826ZM703 42.8826V39.4207H701V42.8826H703ZM702 35.0521H706.402V33.0521H702V35.0521ZM707.402 34.0521V30.8466H705.402V34.0521H707.402ZM706.402 29.8466H702V31.8466H706.402V29.8466ZM703 30.8466V27H701V30.8466H703ZM703 39.3946V34.0521H701V39.3946H703Z" fill="#112D4E"/>
</g>
<rect id="Rectangle 15" x="657.5" y="18.5" width="84" height="88" stroke="#3F72AF" stroke-width="5"/>
<rect id="Rectangle 20" x="44" y="410" width="8" height="14" fill="#C4C4C4"/>
<rect id="Rectangle 21" x="60" y="400" width="8" height="24" fill="#C4C4C4"/>
<rect id="Rectangle 22" x="76" y="385" width="8" height="39" fill="#C4C4C4"/>
<rect id="Rectangle 23" x="92" y="360" width="8" height="64" fill="#C4C4C4"/>
<path id="Arrow 1" d="M47.1385 411.068C46.6235 411.267 46.368 411.847 46.5676 412.362C46.7673 412.876 47.3466 413.132 47.8615 412.932L47.1385 411.068ZM96.94 360.159C96.7515 359.64 96.1779 359.372 95.6587 359.56L87.199 362.631C86.6799 362.82 86.4118 363.393 86.6003 363.913C86.7888 364.432 87.3624 364.7 87.8815 364.511L95.4013 361.781L98.1313 369.301C98.3198 369.82 98.8934 370.088 99.4125 369.9C99.9317 369.711 100.2 369.138 100.011 368.618L96.94 360.159ZM47.8615 412.932C60.2083 408.145 68.9358 402.776 76.3594 394.735C83.7604 386.719 89.8132 376.101 96.906 360.923L95.094 360.077C88.0193 375.216 82.0721 385.599 74.89 393.378C67.7304 401.133 59.2917 406.355 47.1385 411.068L47.8615 412.932Z" fill="black"/>
</g>
</svg>
