<?xml version="1.0" standalone="no"?>
<!DOCTYPE svg PUBLIC "-//W3C//DTD SVG 20010904//EN"
 "http://www.w3.org/TR/2001/REC-SVG-20010904/DTD/svg10.dtd">
<svg version="1.0" xmlns="http://www.w3.org/2000/svg"
 width="659.000000pt" height="653.000000pt" viewBox="0 0 659.000000 653.000000"
 preserveAspectRatio="xMidYMid meet">
<metadata>
Created by potrace 1.16, written by Peter Selinger 2001-2019
</metadata>
<g transform="translate(0.000000,653.000000) scale(0.100000,-0.100000)"
fill="#000000" stroke="none">
<path d="M956 4708 c-7 -13 -73 -126 -146 -253 -198 -342 -596 -1028 -651
-1122 l-49 -83 859 0 860 0 31 55 c17 30 34 55 37 55 2 0 -11 -28 -30 -61
l-34 -62 122 -211 c204 -354 311 -538 495 -856 97 -168 191 -331 209 -362 l32
-58 865 0 865 0 12 28 c7 15 25 46 40 70 15 23 25 48 21 54 -5 7 -3 8 6 3 10
-6 12 -4 6 11 -4 10 -4 15 0 11 4 -4 24 20 43 54 20 34 44 75 54 91 9 16 14
35 11 41 -4 7 -3 9 1 5 5 -5 26 22 47 57 33 54 37 69 27 81 -9 12 -10 17 0 27
10 9 11 8 6 -4 -11 -29 12 -30 26 -1 8 15 43 77 79 137 36 59 65 111 65 114 0
3 9 20 21 36 35 51 36 54 15 50 -15 -3 -18 0 -14 13 4 9 8 11 10 5 8 -22 33
-1 64 53 16 30 27 59 23 65 -4 8 -3 9 4 5 13 -8 36 30 27 44 -3 5 -1 18 5 27
9 16 10 15 5 -4 -9 -32 1 -28 19 7 9 20 10 28 3 24 -7 -3 -4 1 5 9 10 8 15 17
11 20 -3 4 -1 7 4 7 15 0 64 90 56 103 -3 6 -1 7 5 3 14 -8 36 30 26 46 -5 7
-3 8 6 3 10 -6 12 -4 6 11 -4 10 -4 15 0 11 9 -9 55 58 51 75 -2 7 -2 9 1 5 2
-5 13 5 23 23 11 17 16 36 13 42 -4 7 -2 8 4 4 7 -4 12 -2 12 3 0 13 -1710 16
-1710 4 0 -5 -10 -19 -21 -33 l-21 -25 21 35 20 35 860 3 859 2 -52 93 c-29
50 -135 234 -235 407 -101 173 -228 394 -284 490 -55 96 -130 227 -167 290
-37 63 -79 136 -94 163 l-27 47 -1724 0 -1725 0 -14 -22z m576 -319 c86 -44
145 -146 135 -235 -4 -43 -3 -45 34 -66 21 -12 51 -39 66 -61 24 -34 28 -50
28 -108 0 -59 -4 -73 -30 -111 -17 -23 -51 -54 -75 -68 l-45 -25 -361 0 -361
0 -49 30 c-79 49 -117 139 -94 224 12 46 71 118 107 132 15 5 21 14 17 24 -11
29 7 103 36 147 61 92 181 120 265 62 l39 -26 18 24 c9 12 18 25 18 28 0 11
66 44 100 51 47 9 107 0 152 -22z"/>
<path d="M1343 4321 c-31 -14 -48 -31 -60 -58 -10 -21 -19 -40 -20 -42 -1 -2
-17 10 -34 27 -38 37 -90 57 -125 48 -78 -20 -144 -101 -144 -177 0 -28 -7
-38 -34 -56 -37 -24 -76 -94 -76 -136 0 -64 58 -140 120 -157 19 -5 93 -10
165 -10 l130 0 -83 83 c-45 45 -82 86 -82 90 0 4 16 7 35 7 l34 0 3 118 3 117
103 3 102 3 0 -121 0 -120 40 0 c22 0 40 -4 40 -9 0 -4 -37 -45 -82 -90 l-83
-81 145 0 c161 0 207 12 248 65 58 73 50 160 -20 219 -23 20 -47 36 -54 36 -8
0 -13 24 -16 69 -3 60 -8 75 -34 108 -61 75 -145 99 -221 64z"/>
</g>
</svg>
